<svg xmlns="http://www.w3.org/2000/svg" width="650" height="120" viewBox="0 0 650 120"><path fill="hsl(var(--heroui-foreground))" d="M403.8 70.8c0 15.6-7.2 15.6-10.8 15.6s-10.8 0-10.8-15.6v-44h-18.4v46.8c0 18 12 30.8 29.2 30.8s29.2-12.8 29.2-30.8V26.8h-18.4zm180.4-46.4c-22.4 0-40.8 18-40.8 40.8 0 22.4 18.4 40.8 40.8 40.8S625 87.6 625 65.2s-18.4-40.8-40.8-40.8m0 62.8c-12.4 0-22-10-22-22.4 0-12 9.6-22 21.6-22.4 12 0 22 9.6 22.4 21.6v.4c0 12.8-10 22.8-22 22.8M66.2 14 25 103.6h20.8l8-17.2h24.8l8 17.2h20.8zm-8 57.2 7.6-18.8 7.6 18.8zm96.8-44h-30v75.6h18.8V81.2h10c18.4 0 30-10.4 30-27.2v-.4c.4-16.4-10.8-26.4-28.8-26.4m10 27.6c0 6.4-4.4 10.4-11.6 10.4h-9.6V44.4h9.6C161 44 165 48 165 54.8m67.6-27.6h-30v75.6h18.8V81.2h10c18.4 0 30-10.4 30-27.2v-.4c.4-16.4-10.8-26.4-28.8-26.4m10 27.6c0 6.4-4.4 10.4-11.6 10.4h-9.6V44.4h9.6c7.6-.4 11.6 3.6 11.6 10.4m74.8-3.6c-14.8-4-18-5.6-18-10.8V40c0-4 4-6.8 10.4-6.8 8 .4 15.6 3.2 22 8.4l.4.4 10.4-15.2-.4-.4c-9.2-7.2-20.8-11.2-32.4-11.2-18 0-30.8 10.8-30.8 26.4v.4c0 18 12.4 22.8 29.2 26.8 14.4 3.6 16.8 6 16.8 10.4v.4c0 4.8-4.4 7.6-11.6 7.6-9.2-.4-18.4-4-25.2-10.4l-.4-.4-12 14.4.4.4c10 9.2 23.2 14 36.8 14 20 0 32.4-10.4 32.4-27.2v-.4c0-16-11.2-22.4-28-26.4m166.8 55.6-22.8-38.4-6.8 35.6h-16.4L455 24.4l29.6 50 28-50 16.8 79.6h-17.6l-6.4-35.2z"/></svg>
