<svg xmlns="http://www.w3.org/2000/svg" width="24" height="24" fill="none"><path d="M22.875 19.125H21.75V9.309a1.125 1.125 0 0 0-.375-2.184h-3.75V4.809a1.125 1.125 0 0 0-.375-2.184H3.75a1.125 1.125 0 0 0-.375 2.184v14.316H2.25a1.125 1.125 0 1 0 0 2.25h20.625a1.125 1.125 0 1 0 0-2.25ZM19.5 9.375v9.75h-1.875v-9.75H19.5Zm-13.875-4.5h9.75v14.25h-1.5V15a1.125 1.125 0 0 0-1.125-1.125h-4.5A1.125 1.125 0 0 0 7.125 15v4.125h-1.5V4.875Zm6 14.25h-2.25v-3h2.25v3ZM6.75 7.5a1.125 1.125 0 0 1 1.125-1.125h.75a1.125 1.125 0 0 1 0 2.25h-.75A1.125 1.125 0 0 1 6.75 7.5Zm4.5 0a1.125 1.125 0 0 1 1.125-1.125h.75a1.125 1.125 0 0 1 0 2.25h-.75A1.125 1.125 0 0 1 11.25 7.5Zm-4.5 3.75a1.125 1.125 0 0 1 1.125-1.125h.75a1.125 1.125 0 1 1 0 2.25h-.75A1.125 1.125 0 0 1 6.75 11.25Zm4.5 0a1.125 1.125 0 0 1 1.125-1.125h.75a1.125 1.125 0 1 1 0 2.25h-.75a1.125 1.125 0 0 1-1.125-1.125Z"/></svg>
