<svg xmlns="http://www.w3.org/2000/svg" width="24" height="24" viewBox="0 0 24 24">
<path d="M17.25 5.8125C17.7678 5.8125 18.1875 6.23223 18.1875 6.75V20.25C18.1875 20.7678 17.7678 21.1875 17.25 21.1875H3.75C3.23223 21.1875 2.8125 20.7678 2.8125 20.25V6.75C2.8125 6.23223 3.23223 5.8125 3.75 5.8125H17.25ZM4.6875 19.3125H16.3125V7.6875H4.6875V19.3125Z"/>
<path d="M19.3125 17.25V4.6875H6.75C6.23223 4.6875 5.8125 4.26777 5.8125 3.75C5.8125 3.23223 6.23223 2.8125 6.75 2.8125H20.25C20.7678 2.8125 21.1875 3.23223 21.1875 3.75V17.25C21.1875 17.7678 20.7678 18.1875 20.25 18.1875C19.7322 18.1875 19.3125 17.7678 19.3125 17.25Z"/>
</svg>