<svg xmlns="http://www.w3.org/2000/svg" width="24" height="24"><path d="M1.5 18.75v-6a1.5 1.5 0 0 1 1.5-1.5h3.75a.75.75 0 0 1 0 1.5H3v6h18v-6h-3.75a.75.75 0 0 1 0-1.5H21a1.5 1.5 0 0 1 1.5 1.5v6a1.5 1.5 0 0 1-1.5 1.5H3a1.5 1.5 0 0 1-1.5-1.5Z"/><path fill="#000" d="M11.25 12V2.25a.75.75 0 0 1 1.5 0V12a.75.75 0 0 1-1.5 0Z"/><path fill="#000" d="M15.97 6.97a.75.75 0 0 1 1.06 1.06l-4.5 4.5a.75.75 0 0 1-1.06 0l-4.5-4.5a.75.75 0 0 1 1.06-1.06L12 10.94l3.97-3.97ZM17.625 16.875a1.125 1.125 0 1 0 0-2.25 1.125 1.125 0 0 0 0 2.25Z"/></svg>
