<svg xmlns="http://www.w3.org/2000/svg" width="24" height="24"><path d="M16.06 2.25a1.5 1.5 0 0 1 1.061.439l4.19 4.187a1.5 1.5 0 0 1 0 2.12L9.75 20.562A1.5 1.5 0 0 1 8.69 21H4.5A1.5 1.5 0 0 1 3 19.5v-4.227a1.5 1.5 0 0 1 .439-1.022L15.001 2.688a1.5 1.5 0 0 1 1.06-.44ZM8.69 19.5 20.25 7.936 16.06 3.75 4.5 15.31v4.19h4.19Z"/><path d="M12.22 5.47a.75.75 0 0 1 1.06 0l5.25 5.25a.75.75 0 0 1-1.06 1.06l-5.25-5.25a.75.75 0 0 1 0-1.06Z"/><path d="M14.845 8.095a.75.75 0 0 1 1.06 1.06l-9 9a.75.75 0 1 1-1.06-1.06l9-9Z"/><path d="M3.267 14.517a.75.75 0 0 1 1.061 0l5.154 5.155a.75.75 0 1 1-1.06 1.06l-5.155-5.154a.75.75 0 0 1 0-1.06Z"/></svg>
