<svg xmlns="http://www.w3.org/2000/svg" width="24" height="24"><path d="M3.743 2.918a1.125 1.125 0 0 1 1.59.075L7.77 5.675l.015.016 10.111 11.122.015.016 2.421 2.664a1.125 1.125 0 0 1-1.664 1.514l-1.885-2.073a12.192 12.192 0 0 1-4.792.941c-4.12-.003-7.012-1.868-8.849-3.704a14.565 14.565 0 0 1-2.008-2.517 12.358 12.358 0 0 1-.612-1.09 5.714 5.714 0 0 1-.048-.102l-.001-.003v-.001S.471 12.457 1.5 12a166.1 166.1 0 0 1-1.027-.459v-.001l.003-.005a1.887 1.887 0 0 1 .025-.056l.07-.143c.06-.12.147-.286.263-.49.233-.408.582-.967 1.058-1.59a13.805 13.805 0 0 1 3.28-3.095L3.668 4.507a1.125 1.125 0 0 1 .075-1.59ZM6.707 7.85c-1.34.827-2.337 1.873-3.029 2.776-.404.528-.698.999-.888 1.333L2.766 12a12.315 12.315 0 0 0 1.967 2.58C6.27 16.116 8.624 17.624 12 17.624h.009a9.942 9.942 0 0 0 3.144-.485L6.707 7.85ZM12 4.125c4.124 0 7.02 1.866 8.858 3.705.916.915 1.576 1.83 2.008 2.516a12.31 12.31 0 0 1 .612 1.09 5.705 5.705 0 0 1 .044.095l.004.007.001.003v.001s.001.001-1.027.458l1.028.457v.002l-.002.003-.003.007-.01.022a5.182 5.182 0 0 1-.158.316c-.107.205-.266.492-.48.832a14.565 14.565 0 0 1-1.975 2.49 1.125 1.125 0 0 1-1.598-1.585A12.317 12.317 0 0 0 21.234 12a12.313 12.313 0 0 0-1.967-2.58C17.73 7.885 15.376 6.376 12 6.376c-.32 0-.632.014-.937.04a1.125 1.125 0 0 1-.188-2.243c.366-.03.74-.047 1.125-.047Zm9.472 8.333.001.001v-.001ZM1.5 12l-1.028.457c-.13-.291-.13-.623 0-.914L1.5 12Zm22.028-.457c.13.29.13.623 0 .914L22.5 12l1.028-.457Z"/></svg>
