<svg xmlns="http://www.w3.org/2000/svg" width="24" height="24"><path d="M12 4.125c4.124 0 7.02 1.866 8.858 3.705.916.915 1.576 1.83 2.008 2.516a12.353 12.353 0 0 1 .612 1.09l.034.072.01.023.004.007.001.003v.001s.001.001-1.027.458a114.35 114.35 0 0 1 1.027.459l-.001.003-.003.007-.01.023a5.705 5.705 0 0 1-.16.32c-.109.208-.27.498-.487.842-.432.687-1.092 1.6-2.008 2.517-1.838 1.838-4.734 3.704-8.858 3.704-4.124 0-7.02-1.866-8.858-3.704a14.565 14.565 0 0 1-2.008-2.517 12.356 12.356 0 0 1-.612-1.09 5.742 5.742 0 0 1-.048-.102l-.001-.003v-.001S.471 12.457 1.5 12a112.04 112.04 0 0 1-1.027-.459l.001-.003a.687.687 0 0 0 .014-.03 5.742 5.742 0 0 1 .159-.32c.109-.208.27-.498.487-.842.432-.687 1.092-1.6 2.008-2.516C4.98 5.99 7.876 4.125 12 4.125Zm0 2.25c-3.376 0-5.73 1.509-7.267 3.046A12.315 12.315 0 0 0 2.766 12a12.315 12.315 0 0 0 1.967 2.58C6.27 16.116 8.624 17.624 12 17.624c3.376 0 5.73-1.509 7.267-3.046A12.313 12.313 0 0 0 21.234 12a12.313 12.313 0 0 0-1.967-2.58C17.73 7.885 15.376 6.376 12 6.376ZM13.875 12a1.875 1.875 0 1 0-3.75 0 1.875 1.875 0 0 0 3.75 0Zm-11.348.46v-.002.002Zm18.945-.002.001.001v-.001ZM1.5 12l-1.028.457c-.13-.29-.13-.623 0-.914L1.5 12Zm22.028-.457c.13.29.13.623 0 .914L22.5 12l1.028-.457ZM16.125 12a4.125 4.125 0 1 1-8.25 0 4.125 4.125 0 0 1 8.25 0Z"/></svg>
