<svg xmlns="http://www.w3.org/2000/svg" width="24" height="24" viewBox="0 0 24 24" fill="none">
<path d="M3.75 3.75V20.25H20.25V3.75H3.75ZM21.75 20.25C21.75 21.0784 21.0784 21.75 20.25 21.75H3.75C2.92157 21.75 2.25 21.0784 2.25 20.25V3.75C2.25 2.92157 2.92157 2.25 3.75 2.25H20.25C21.0784 2.25 21.75 2.92157 21.75 3.75V20.25Z" />
<path d="M10.5 16.5V10.5C10.5 10.0858 10.8358 9.75 11.25 9.75C11.6642 9.75 12 10.0858 12 10.5V16.5C12 16.9142 11.6642 17.25 11.25 17.25C10.8358 17.25 10.5 16.9142 10.5 16.5Z" />
<path d="M7.5 16.5V10.5C7.5 10.0858 7.83579 9.75 8.25 9.75C8.66421 9.75 9 10.0858 9 10.5V16.5C9 16.9142 8.66421 17.25 8.25 17.25C7.83579 17.25 7.5 16.9142 7.5 16.5Z" />
<path d="M15.75 16.5V13.125C15.75 12.6277 15.5525 12.1508 15.2009 11.7991C14.8492 11.4475 14.3723 11.25 13.875 11.25C13.3777 11.25 12.9008 11.4475 12.5491 11.7991C12.1975 12.1508 12 12.6277 12 13.125C12 13.5392 11.6642 13.875 11.25 13.875C10.8358 13.875 10.5 13.5392 10.5 13.125C10.5 12.2299 10.8556 11.3714 11.4885 10.7385C12.1214 10.1056 12.9799 9.75 13.875 9.75C14.7701 9.75 15.6286 10.1056 16.2615 10.7385C16.8944 11.3714 17.25 12.2299 17.25 13.125V16.5C17.25 16.9142 16.9142 17.25 16.5 17.25C16.0858 17.25 15.75 16.9142 15.75 16.5Z" />
<path d="M8.25 9C8.87132 9 9.375 8.49632 9.375 7.875C9.375 7.25368 8.87132 6.75 8.25 6.75C7.62868 6.75 7.125 7.25368 7.125 7.875C7.125 8.49632 7.62868 9 8.25 9Z" />
</svg>