<svg width="24" height="24" viewBox="0 0 24 24" fill="none" xmlns="http://www.w3.org/2000/svg">
<path d="M3.75 5.25V19.0365L5.66455 18.0792L5.70456 18.0606C5.90662 17.974 6.13749 17.9802 6.33545 18.0792L9 19.4115L11.6646 18.0792L11.7046 18.0606C11.9066 17.974 12.1375 17.9802 12.3354 18.0792L15 19.4115L17.6646 18.0792L17.7046 18.0606C17.9066 17.974 18.1375 17.9802 18.3354 18.0792L20.25 19.0365V5.25H3.75ZM10.5 8.25C10.9142 8.25 11.25 8.58579 11.25 9V15C11.25 15.4142 10.9142 15.75 10.5 15.75H6C5.58579 15.75 5.25 15.4142 5.25 15V9C5.25 8.58579 5.58579 8.25 6 8.25H10.5ZM6.75 14.25H9.75V9.75H6.75V14.25ZM18 12.75C18.4142 12.75 18.75 13.0858 18.75 13.5C18.75 13.9142 18.4142 14.25 18 14.25H13.5C13.0858 14.25 12.75 13.9142 12.75 13.5C12.75 13.0858 13.0858 12.75 13.5 12.75H18ZM18 9.75C18.4142 9.75 18.75 10.0858 18.75 10.5C18.75 10.9142 18.4142 11.25 18 11.25H13.5C13.0858 11.25 12.75 10.9142 12.75 10.5C12.75 10.0858 13.0858 9.75 13.5 9.75H18ZM21.75 20.25C21.75 20.5099 21.6154 20.7514 21.3943 20.888C21.1732 21.0247 20.897 21.0371 20.6646 20.9208L18 19.5885L15.3354 20.9208C15.1243 21.0264 14.8757 21.0264 14.6646 20.9208L12 19.5885L9.33545 20.9208C9.1243 21.0264 8.8757 21.0264 8.66455 20.9208L6 19.5885L3.33545 20.9208C3.10296 21.0371 2.82679 21.0247 2.60568 20.888C2.38457 20.7514 2.25 20.5099 2.25 20.25V5.25C2.25 4.85217 2.40806 4.47067 2.68936 4.18936C2.97067 3.90806 3.35217 3.75 3.75 3.75H20.25C20.6478 3.75 21.0293 3.90806 21.3106 4.18936C21.5919 4.47067 21.75 4.85218 21.75 5.25V20.25Z"/>
</svg>
