<svg xmlns="http://www.w3.org/2000/svg" width="24" height="24"><path d="M22.664 4.811a1.49 1.49 0 0 0-1.3-.26l-.326.089C19.276 5.115 15.995 6 12 6s-7.276-.885-9.038-1.36l-.327-.088A1.5 1.5 0 0 0 .75 6v12a1.5 1.5 0 0 0 1.892 1.448l.298-.08C4.7 18.89 7.985 18 12 18c4.015 0 7.3.89 9.065 1.368l.298.08A1.498 1.498 0 0 0 23.25 18V6a1.49 1.49 0 0 0-.586-1.189ZM2.571 6.087C4.4 6.581 7.807 7.5 12 7.5c4.193 0 7.6-.919 9.43-1.413L21.75 6v11.134l-5.444-5.444a1.5 1.5 0 0 0-2.122 0l-1.875 1.875L8.184 9.44a1.5 1.5 0 0 0-2.12 0L2.25 13.253V6l.32.087Zm17.476 11.464a36.693 36.693 0 0 0-4.593-.844l-2.082-2.082 1.875-1.875 4.8 4.8Zm-17.504.368L2.25 18v-2.625L7.125 10.5l6.023 6.023A29.887 29.887 0 0 0 12 16.5c-4.219 0-7.755.96-9.457 1.42ZM18 10.125a1.125 1.125 0 1 1 2.25 0 1.125 1.125 0 0 1-2.25 0Z"/></svg>
