<svg xmlns="http://www.w3.org/2000/svg" width="24" height="24" viewBox="0 0 24 24">
<path d="M13.891 2.13382C14.2413 1.98872 14.6446 2.06895 14.9127 2.33707L22.4127 9.83707C22.7788 10.2032 22.7788 10.7968 22.4127 11.1629L14.9127 18.6629C14.6446 18.9311 14.2413 19.0113 13.891 18.8662C13.5406 18.7211 13.3123 18.3792 13.3123 18V14.4708C8.43063 14.8181 4.96745 17.7972 3.58286 19.2718L3.58268 19.2716C3.3965 19.4717 3.15255 19.609 2.8845 19.6637C2.61147 19.7194 2.3278 19.6869 2.07453 19.5707C1.82127 19.4545 1.61156 19.2607 1.47578 19.0173C1.34119 18.7761 1.28631 18.4986 1.31858 18.2244H1.3184C1.70409 14.8816 3.62385 11.9716 6.05112 9.91269C8.19797 8.09168 10.8269 6.86435 13.3123 6.61112V3C13.3123 2.62082 13.5406 2.27893 13.891 2.13382ZM15.1873 7.5C15.1873 8.01776 14.7675 8.43749 14.2498 8.4375C12.0479 8.4375 9.43126 9.50416 7.26392 11.3426C5.56376 12.7847 4.2072 14.645 3.55174 16.7179C5.67981 14.8952 9.38101 12.5625 14.2498 12.5625C14.7675 12.5625 15.1873 12.9822 15.1873 13.5V15.7366L20.4239 10.5L15.1873 5.26337V7.5Z"/>
</svg>