<svg xmlns="http://www.w3.org/2000/svg" width="24" height="24" viewBox="0 0 24 24" fill="none">
<path d="M15 9.5625C15 9.28107 15.1576 9.02331 15.4081 8.89499C15.6585 8.76668 15.9598 8.78936 16.1882 8.95377C17.3857 9.81574 18.7895 10.3362 20.25 10.4671V8.20285C18.9353 8.03723 17.7043 7.43961 16.7574 6.49265C15.8104 5.54568 15.2127 4.31475 15.0471 3H12.75V14.6253C12.7497 15.2292 12.5875 15.8221 12.2801 16.3419C11.9726 16.8617 11.5313 17.2895 11.0023 17.5807C10.4732 17.8719 9.87564 18.0158 9.272 17.9973C8.66837 17.9789 8.08074 17.7989 7.5704 17.476C7.06007 17.153 6.64573 16.699 6.37061 16.1614C6.09548 15.6238 5.96965 15.0223 6.00623 14.4195C6.04281 13.8167 6.24048 13.2346 6.57861 12.7343C6.82434 12.3706 7.13767 12.0597 7.5 11.8176V9.22513C5.32452 10.0127 3.75 12.1653 3.75 14.625C3.75 16.1168 4.3426 17.5476 5.39749 18.6025C6.45238 19.6574 7.88316 20.25 9.375 20.25C10.8668 20.25 12.2976 19.6574 13.3525 18.6025C14.4074 17.5476 15 16.1168 15 14.625V9.5625ZM16.5 14.625C16.5 16.5147 15.7493 18.327 14.4131 19.6631C13.077 20.9993 11.2647 21.75 9.375 21.75C7.48533 21.75 5.67305 20.9993 4.33685 19.6631C3.00066 18.327 2.25 16.5147 2.25 14.625C2.25 11.1324 4.76899 8.10829 8.11844 7.51163C8.33692 7.47271 8.56144 7.53255 8.73157 7.67505C8.9017 7.81755 9 8.02808 9 8.25V12.2522C8.99998 12.5419 8.83316 12.8057 8.57144 12.9298C8.26831 13.0736 8.00929 13.2961 7.82144 13.5741C7.6336 13.8521 7.52381 14.1754 7.50348 14.5103C7.48315 14.8452 7.55305 15.1794 7.7059 15.4781C7.85874 15.7767 8.0889 16.0289 8.37241 16.2083C8.65593 16.3877 8.98242 16.4877 9.31778 16.498C9.65314 16.5082 9.98515 16.4283 10.2791 16.2665C10.573 16.1048 10.8181 15.8671 10.9889 15.5783C11.1596 15.2896 11.2498 14.9604 11.25 14.625V2.25C11.25 1.83579 11.5858 1.5 12 1.5H15.75C16.1642 1.5 16.5 1.83579 16.5 2.25C16.5 3.44347 16.9741 4.58809 17.818 5.43201C18.6619 6.27592 19.8065 6.75 21 6.75C21.4142 6.75 21.75 7.08579 21.75 7.5V11.25C21.75 11.6637 21.415 11.9992 21.0014 12C19.4275 12.003 17.8839 11.6232 16.5 10.9027V14.625Z" />
</svg>