<svg xmlns="http://www.w3.org/2000/svg" width="24" height="24"><path d="M12.674 3.701A8.625 8.625 0 0 1 23.194 14.7a1.125 1.125 0 0 1-2.138-.703 6.376 6.376 0 1 0-12.431-1.996 1.125 1.125 0 0 1-2.25-.002c0-.631.07-1.258.207-1.87a4.126 4.126 0 0 0 .17 8.246h2.623a1.125 1.125 0 0 1 0 2.25H6.749A6.375 6.375 0 1 1 7.41 7.909 8.625 8.625 0 0 1 12.674 3.7ZM13.5 19.5v-4.784l-1.08 1.08a1.125 1.125 0 0 1-1.59-1.591l3-3c.439-.44 1.151-.44 1.59 0l3 3a1.125 1.125 0 0 1-1.59 1.59l-1.08-1.079V19.5a1.125 1.125 0 0 1-2.25 0Z"/></svg>
