<svg xmlns="http://www.w3.org/2000/svg" width="24" height="24" viewBox="0 0 24 24" fill="none">
<g clip-path="url(#clip0_0_3)">
<path d="M12 24C18.6274 24 24 18.6274 24 12C24 5.37258 18.6274 -2.44141e-06 12 -2.44141e-06C5.37258 -2.44141e-06 0 5.37258 0 12C0 18.6274 5.37258 24 12 24Z" fill="black"/>
<path d="M8.74017 6.07232H6.93346L15.2497 17.9679H17.0564L8.74017 6.07232ZM5.33333 5.18683H9.30364L12.746 10.1966L17.0559 5.18683H18.2321L13.2683 10.9568L18.6667 18.8132H14.6964L11.061 13.5226L6.50962 18.8132H5.33333L10.5387 12.7624L5.33333 5.18683Z" fill="white"/>
</g>
<defs>
<clipPath id="clip0_0_3">
<rect width="24" height="24" fill="white"/>
</clipPath>
</defs>
</svg>