<svg xmlns="http://www.w3.org/2000/svg" width="24" height="24" viewBox="0 0 24 24" fill="none">
<path d="M9 3C9.25642 3 9.49505 3.13102 9.63272 3.34735L20.1327 19.8474C20.2797 20.0783 20.2892 20.3709 20.1574 20.6109C20.0257 20.8509 19.7737 21 19.5 21H15C14.7436 21 14.5049 20.869 14.3673 20.6526L3.86728 4.15265C3.72032 3.92171 3.71083 3.62906 3.84256 3.3891C3.97428 3.14914 4.22626 3 4.5 3H9ZM15.4117 19.5H18.1338L8.58829 4.5H5.86624L15.4117 19.5Z" />
<path d="M10.1212 12.9515C10.3999 12.645 10.8743 12.6223 11.1808 12.9009C11.4873 13.1796 11.5098 13.6539 11.2312 13.9604L5.05499 20.7545C4.77637 21.061 4.30204 21.0836 3.99554 20.805C3.68905 20.5263 3.6664 20.052 3.94501 19.7455L10.1212 12.9515Z" />
<path d="M18.945 3.24554C19.2236 2.93905 19.698 2.91638 20.0045 3.19501C20.311 3.47362 20.3336 3.94796 20.055 4.25446L13.8787 11.0486C13.6001 11.3551 13.1258 11.3776 12.8193 11.099C12.5128 10.8204 12.4902 10.3461 12.7688 10.0396L18.945 3.24554Z" />
</svg>
