<?xml version="1.0" standalone="no"?>
<!DOCTYPE svg PUBLIC "-//W3C//DTD SVG 20010904//EN"
 "http://www.w3.org/TR/2001/REC-SVG-20010904/DTD/svg10.dtd">
<svg version="1.0" xmlns="http://www.w3.org/2000/svg"
 width="700.000000pt" height="700.000000pt" viewBox="0 0 700.000000 700.000000"
 preserveAspectRatio="xMidYMid meet">
<metadata>
Created by potrace 1.14, written by Peter Selinger 2001-2017
</metadata>
<g transform="translate(0.000000,700.000000) scale(0.100000,-0.100000)"
fill="#000000" stroke="none">
<path d="M1506 6635 c-188 -38 -306 -242 -245 -423 10 -29 27 -65 38 -80 18
-26 194 -202 441 -442 63 -62 284 -277 490 -480 206 -202 422 -413 480 -470
58 -56 275 -268 482 -472 449 -440 410 -405 477 -436 75 -34 169 -38 252 -10
66 22 85 39 320 268 669 656 839 822 944 925 67 66 286 280 485 475 630 617
644 631 669 685 35 74 37 181 5 260 -13 33 -34 72 -47 86 -42 49 -116 97 -169
110 -43 11 -473 13 -2312 14 -1508 0 -2276 -3 -2310 -10z"/>
<path d="M895 6028 c-102 -21 -190 -91 -237 -187 l-23 -46 0 -2295 0 -2295 25
-50 c34 -71 108 -139 177 -166 107 -40 237 -25 320 38 20 15 544 535 1164
1155 792 791 1133 1139 1145 1165 47 110 49 196 6 288 -28 58 -117 150 -1145
1178 -614 613 -1135 1131 -1160 1151 -72 59 -178 84 -272 64z"/>
<path d="M3715 3186 c-94 -30 -61 -2 -530 -461 -412 -404 -516 -506 -994 -974
-200 -196 -487 -477 -637 -626 -272 -269 -273 -270 -292 -335 -58 -194 60
-394 253 -427 28 -5 1069 -8 2315 -7 2138 1 2268 2 2315 18 88 32 153 90 194
176 35 74 36 200 3 273 -25 55 -36 66 -1156 1161 -66 65 -299 293 -516 506
-647 634 -661 647 -718 675 -64 31 -176 41 -237 21z"/>
</g>
</svg>
