<svg width="200" height="50" viewBox="0 0 200 50" fill="none" xmlns="http://www.w3.org/2000/svg">
<g clip-path="url(#clip0_5_30)">
<path fill-rule="evenodd" clip-rule="evenodd" d="M194.959 35.3986C195.08 36.7913 196.183 38.5639 198.093 38.5639H199.211C199.645 38.5639 200 38.2051 200 37.7671V12.9331H199.995C199.972 12.5148 199.63 12.1797 199.211 12.1797H195.747C195.329 12.1797 194.986 12.5148 194.963 12.9331H194.959V14.951C192.837 12.3085 189.491 11.2117 186.135 11.2117C178.508 11.2117 172.325 17.4619 172.325 25.1724C172.325 32.8832 178.508 39.1336 186.135 39.1336V39.1344C189.491 39.1344 193.147 37.8184 194.958 35.3954L194.959 35.3986ZM186.149 34.2475C181.298 34.2475 177.365 30.1849 177.365 25.1724C177.365 20.1608 181.298 16.0979 186.149 16.0979C190.999 16.0979 194.931 20.1608 194.931 25.1724C194.931 30.1849 190.999 34.2475 186.149 34.2475Z" fill="#0D0E10"/>
<path fill-rule="evenodd" clip-rule="evenodd" d="M167.946 36.2527L167.944 23.4022H167.945C167.945 16.1584 163.424 11.2717 156.215 11.2717C152.774 11.2717 149.953 13.2833 148.957 15.0112C148.741 13.6601 148.032 12.2399 145.831 12.2399H144.709C144.276 12.2399 143.921 12.5989 143.921 13.037V35.4608C143.921 35.4614 143.921 35.4632 143.921 35.4642V37.8729H143.926C143.948 38.2907 144.291 38.6263 144.71 38.6263H148.174C148.227 38.6263 148.279 38.6198 148.329 38.6099C148.352 38.6055 148.373 38.5964 148.396 38.5899C148.421 38.582 148.448 38.5758 148.473 38.5657C148.504 38.5527 148.531 38.5354 148.56 38.5192C148.574 38.5105 148.589 38.5044 148.602 38.4951C148.637 38.4727 148.669 38.4457 148.699 38.418C148.704 38.4127 148.71 38.4095 148.715 38.4048C148.75 38.3711 148.781 38.3339 148.809 38.2954C148.809 38.2947 148.809 38.2947 148.809 38.2947C148.896 38.1743 148.949 38.0295 148.957 37.8729H148.962V23.203C148.962 19.3126 152.082 16.1584 155.931 16.1584C159.78 16.1584 162.9 19.3126 162.9 23.203L162.903 35.4651L162.904 35.4608C162.904 35.4717 162.906 35.4828 162.906 35.4945V37.8729H162.91C162.933 38.2907 163.275 38.6263 163.694 38.6263H167.158C167.211 38.6263 167.263 38.6198 167.313 38.6099C167.334 38.6061 167.353 38.5978 167.373 38.5921C167.401 38.5838 167.43 38.5766 167.458 38.5657C167.486 38.5537 167.512 38.5372 167.538 38.522C167.555 38.5127 167.572 38.5059 167.588 38.4951C167.62 38.4741 167.649 38.4485 167.678 38.423C167.685 38.4162 167.693 38.4111 167.7 38.404C167.733 38.3721 167.762 38.3376 167.789 38.3014C167.791 38.2986 167.793 38.2964 167.795 38.2937C167.88 38.1743 167.933 38.0305 167.942 37.8751C167.942 37.8741 167.942 37.8729 167.942 37.8729H167.947V36.2531L167.946 36.2527Z" fill="#0D0E10"/>
<path fill-rule="evenodd" clip-rule="evenodd" d="M131.87 35.3986C131.991 36.7913 133.094 38.5639 135.005 38.5639H136.123C136.556 38.5639 136.911 38.2051 136.911 37.7671V12.9331H136.906C136.884 12.5148 136.541 12.1797 136.123 12.1797H132.659C132.24 12.1797 131.898 12.5148 131.874 12.9331H131.87V14.951C129.748 12.3085 126.402 11.2117 123.046 11.2117C115.419 11.2117 109.236 17.4619 109.236 25.1724C109.236 32.8832 115.419 39.1336 123.046 39.1336V39.1344C126.402 39.1344 130.059 37.8184 131.87 35.3954L131.87 35.3986ZM123.059 34.2475C118.209 34.2475 114.276 30.1849 114.276 25.1724C114.276 20.1608 118.209 16.0979 123.059 16.0979C127.91 16.0979 131.842 20.1608 131.842 25.1724C131.842 30.1849 127.91 34.2475 123.059 34.2475Z" fill="#0D0E10"/>
<path fill-rule="evenodd" clip-rule="evenodd" d="M88.7512 31.8418C91.0636 33.4612 93.5878 34.2477 96.0134 34.2477C98.3242 34.2477 100.713 33.0368 100.713 30.9289C100.713 28.1147 95.5076 27.677 92.2368 26.5531C88.9656 25.4295 86.1482 23.1066 86.1482 19.3448C86.1482 13.5887 91.2218 11.2113 95.9572 11.2113C98.9576 11.2113 102.053 12.2115 104.06 13.6442C104.752 14.1737 104.331 14.7815 104.331 14.7815L102.415 17.5476C102.199 17.8591 101.823 18.1283 101.282 17.7911C100.742 17.4541 98.8462 16.0977 95.9572 16.0977C93.068 16.0977 91.3276 17.4465 91.3276 19.1183C91.3276 21.123 93.5896 21.7536 96.239 22.4368C100.856 23.6949 105.893 25.2071 105.893 30.9289C105.893 36.0006 101.2 39.1347 96.0134 39.1347C92.083 39.1347 88.7368 38.002 85.9302 35.9202C85.3456 35.3287 85.754 34.7796 85.754 34.7796L87.6604 32.0275C88.0482 31.5129 88.5374 31.6923 88.7512 31.8418Z" fill="#0D0E10"/>
<path fill-rule="evenodd" clip-rule="evenodd" d="M75.4346 35.3986C75.5558 36.7913 76.6586 38.5639 78.5692 38.5639H79.6872C80.1204 38.5639 80.4756 38.2051 80.4756 37.7671V12.9331H80.4708C80.4482 12.5148 80.106 12.1797 79.6872 12.1797H76.2232C75.8044 12.1797 75.4622 12.5148 75.4388 12.9331H75.4346V14.951C73.3124 12.3085 69.9662 11.2117 66.6108 11.2117C58.9838 11.2117 52.8008 17.4619 52.8008 25.1724C52.8008 32.8832 58.9838 39.1336 66.6108 39.1336V39.1344C69.9662 39.1344 73.623 37.8184 75.4342 35.3954L75.4346 35.3986ZM66.6244 34.2475C61.7736 34.2475 57.841 30.1849 57.841 25.1724C57.841 20.1608 61.7736 16.0979 66.6244 16.0979C71.475 16.0979 75.407 20.1608 75.407 25.1724C75.407 30.1849 71.475 34.2475 66.6244 34.2475Z" fill="#0D0E10"/>
<path fill-rule="evenodd" clip-rule="evenodd" d="M33.4394 26.122C28.3066 26.122 24.1458 30.3251 24.1458 35.5099C24.1458 40.6945 28.3066 44.8976 33.4394 44.8976C38.5722 44.8976 42.733 40.6945 42.733 35.5099C42.733 30.3251 38.5722 26.122 33.4394 26.122ZM9.29366 26.1228C4.16096 26.1228 0 30.3251 0 35.5099C0 40.6945 4.16096 44.8976 9.29366 44.8976C14.4266 44.8976 18.5877 40.6945 18.5877 35.5099C18.5877 30.3251 14.4266 26.1228 9.29366 26.1228ZM30.66 14.3873C30.66 19.5723 26.4992 23.7757 21.3666 23.7757C16.2336 23.7757 12.0729 19.5723 12.0729 14.3873C12.0729 9.20339 16.2336 5 21.3666 5C26.4992 5 30.66 9.20339 30.66 14.3873Z" fill="#F06A6A"/>
</g>
<defs>
<clipPath id="clip0_5_30">
<rect width="200" height="50" fill="white"/>
</clipPath>
</defs>
</svg>
