<svg width="200" height="50" viewBox="0 0 200 50" fill="none" xmlns="http://www.w3.org/2000/svg">
<path d="M200 15.5486H194.079L186.987 23.6538V15.5486H182.015L182.04 35.5007H186.987V27.9188L193.713 35.5007H200L190.935 25.6498L200 15.5486ZM173.999 23.7537L169.466 23.2304C166.81 22.9308 166.153 22.257 166.153 21.3343C166.153 20.3116 167.517 19.3889 170.173 19.3889C172.732 19.3889 174.072 20.3622 174.316 21.8336H179.189C178.942 17.6179 175.484 15 170.441 15C164.447 15 161.425 17.4434 161.425 21.7577C161.425 25.2744 163.423 26.9214 167.566 27.3702L172.171 27.8682C173.927 28.068 174.731 28.767 174.731 29.6645C174.731 30.6871 173.561 31.6099 170.734 31.6099C167.468 31.6099 166.153 30.7617 165.933 29.0653H161.157C161.376 33.6551 164.3 35.9987 170.563 35.9987C176.289 35.9987 179.482 33.4301 179.482 29.5646C179.482 26.1971 177.581 24.1772 173.999 23.7537ZM143.269 35.5007H158.963V31.1864H148.241V27.5699H156.867V23.2304H148.241V19.8629H158.963V15.5486H143.269V35.5007ZM131.573 15.5486H122.459V35.5007H131.573C138.567 35.5007 140.492 32.8322 140.492 25.3742C140.492 18.3662 138.64 15.5486 131.573 15.5486ZM131.373 31.1877H127.42V19.8629H131.373C134.493 19.8629 135.418 20.7364 135.418 25.3742C135.423 29.6139 134.375 31.1877 131.373 31.1877ZM108.959 15C101.867 15 98.1875 19.4634 98.1875 25.4741C98.1875 31.51 101.867 35.9987 108.959 35.9987C116.075 35.9987 119.754 31.51 119.754 25.4741C119.754 19.4634 116.075 15 108.959 15ZM108.959 31.51C105.28 31.51 103.256 29.2157 103.256 25.4741C103.256 21.8083 105.28 19.4887 108.959 19.4887C112.664 19.4887 114.662 21.8083 114.662 25.4741C114.662 29.2157 112.663 31.51 108.959 31.51ZM79.8619 19.8629H86.1487V35.5007H91.1201V19.8629H97.3834V15.5486H79.8619V19.8629ZM72.6253 27.8682C72.6253 30.4621 71.0654 31.51 68.4086 31.51C65.826 31.51 64.145 30.4128 64.145 27.8682V15.5486H59.1736V28.4421C59.1736 34.2038 64.1931 35.9987 68.4086 35.9987C72.6006 35.9987 77.5955 34.2038 77.5955 28.4421V15.5486H72.6253V27.8682ZM44.625 15.5486L37.1439 35.5007H42.2857L43.5912 31.759H51.9432L53.2277 35.5007H58.5387L50.9662 15.5486H44.625ZM45.0709 27.5194L47.8018 19.6985L50.4869 27.5219L45.0709 27.5194ZM0.153155 35.502L17.6104 24.3882H26.6663C26.7359 24.3882 26.8047 24.4023 26.8689 24.4296C26.9331 24.4568 26.9915 24.4968 27.0406 24.5472C27.0897 24.5975 27.1286 24.6573 27.1551 24.7231C27.1816 24.7889 27.1951 24.8594 27.195 24.9305C27.2022 25.0229 27.1825 25.1153 27.1386 25.1962C27.0947 25.2772 27.0283 25.3431 26.9479 25.3856L18.3737 30.6467C17.8167 30.988 17.6215 31.6731 17.6215 32.1863L17.6129 35.502H28.5091V16.2325C28.5094 16.1401 28.4913 16.0486 28.4561 15.9635C28.4208 15.8784 28.369 15.8015 28.3039 15.7375C28.2388 15.6735 28.1617 15.6236 28.0773 15.5909C27.9928 15.5582 27.9027 15.5434 27.8125 15.5473H17.4153L0 26.613V35.502H0.153155Z" fill="black"/>
</svg>
