<svg width="200" height="50" viewBox="0 0 200 50" fill="none" xmlns="http://www.w3.org/2000/svg">
<g clip-path="url(#clip0_2_41)">
<path fill-rule="evenodd" clip-rule="evenodd" d="M0 36.1179L7.17602 30.8275C10.988 35.6151 15.0375 37.8227 19.5463 37.8227C24.0307 37.8227 27.9657 35.6412 31.606 30.8907L38.8836 36.0533C33.6322 42.9029 27.1043 46.5214 19.5463 46.5214C12.0125 46.5214 5.42173 42.9276 0 36.1179Z" fill="url(#paint0_linear_2_41)"/>
<path fill-rule="evenodd" clip-rule="evenodd" d="M19.1413 13.1252L6.37042 23.7169L0.466476 17.127L19.1685 1.61717L37.7231 17.1393L31.792 23.7059L19.1413 13.1252Z" fill="url(#paint1_linear_2_41)"/>
<path d="M66.0209 39.9878C61.6609 39.9878 58.0263 38.6277 55.0787 35.9077C52.131 33.1492 50.6786 29.6131 50.6786 25.2981C50.6786 20.9474 52.1711 17.3715 55.1173 14.5731C58.1079 11.7363 61.7424 10.3392 66.0638 10.3392C71.3939 10.3392 76.1159 12.551 78.8647 16.0128L74.0569 20.8691C71.7559 18.4966 69.2519 17.2932 66.5474 17.2932C64.2451 17.2932 62.3477 18.0295 60.7708 19.5462C59.2369 21.0642 58.4714 22.9696 58.4714 25.261C58.4714 27.4755 59.2369 29.3411 60.7708 30.8577C62.3477 32.3332 64.2451 33.0695 66.5059 33.0695C69.4536 33.0695 72.0393 31.8262 74.1785 29.3782L79.1867 34.0036C77.813 35.7524 75.9557 37.1908 73.6533 38.3173C71.351 39.4438 68.8083 39.9878 66.0209 39.9878ZM87.6577 9.90921V39.5605H80.5532V9.90921H87.6577ZM94.393 16.2024C92.0119 16.2024 90.2762 14.5319 90.2762 12.2419C90.2762 10.026 92.0935 8.35411 94.393 8.35411C96.6967 8.35411 98.4739 10.026 98.4739 12.2419C98.4739 14.5319 96.6953 16.2065 94.393 16.2065V16.2024ZM97.9889 18.1078V39.5605H90.84V18.1078H97.9889ZM111.67 40.0276C108.155 40.0276 105.331 38.978 103.112 36.8789C100.929 34.7812 99.839 32.0982 99.839 28.7957C99.839 25.4918 100.929 22.813 103.15 20.7125C105.372 18.6134 108.237 17.5666 111.79 17.5666C116.435 17.5666 120.514 19.7412 122.41 23.8213L116.718 26.6993C115.588 24.8722 114.012 23.9381 111.953 23.9381C110.458 23.9381 109.247 24.4052 108.276 25.3393C107.815 25.798 107.453 26.3393 107.211 26.9324C106.969 27.5255 106.85 28.1587 106.863 28.7957C106.863 31.6325 109.003 33.7316 111.872 33.7316C113.931 33.7316 115.828 32.6436 116.637 30.9731L122.332 34.2358C120.391 37.8117 116.393 40.0276 111.67 40.0276ZM147.118 39.5605H138.635L132.05 31.0487L131.001 31.9828V39.5605H123.9V9.90921H131.006V24.3269L137.707 18.1078H146.389L136.821 26.7364L147.118 39.5605ZM147.594 28.4069V10.8406H155.185V28.2915C155.185 31.5158 157.124 33.0709 159.912 33.0709C162.656 33.0709 164.594 31.4375 164.594 28.2902V10.8406H172.227V28.4069C172.227 36.8789 166.127 40.0661 159.912 40.0661C153.733 40.0661 147.594 36.8789 147.594 28.4069ZM189.098 17.5666C192.289 17.5666 194.874 18.6532 196.932 20.8293C198.991 22.9668 200 25.6484 200 28.7957C200 31.9457 198.951 34.6246 196.893 36.8405C194.832 39.0151 192.249 40.1059 189.139 40.1059C186.674 40.1059 184.535 39.3284 182.799 37.7746V48.3828H175.65V18.1078H182.679V20.0915C184.415 18.4183 186.554 17.5666 189.098 17.5666ZM192.731 28.8726C192.731 26.0757 190.635 23.9381 187.726 23.9381C184.818 23.9381 182.679 26.0757 182.679 28.874C182.679 30.234 183.161 31.4004 184.091 32.3716C185.058 33.3429 186.27 33.8099 187.726 33.8099C189.178 33.8099 190.39 33.3429 191.319 32.3716C192.245 31.4259 192.753 30.172 192.735 28.874L192.731 28.8726Z" fill="black"/>
</g>
<defs>
<linearGradient id="paint0_linear_2_41" x1="0" y1="41.5016" x2="38.8836" y2="41.5016" gradientUnits="userSpaceOnUse">
<stop stop-color="#8930FD"/>
<stop offset="1" stop-color="#49CCF9"/>
</linearGradient>
<linearGradient id="paint1_linear_2_41" x1="0.466476" y1="16.6461" x2="37.7231" y2="16.6461" gradientUnits="userSpaceOnUse">
<stop stop-color="#FF02F0"/>
<stop offset="1" stop-color="#FFC800"/>
</linearGradient>
<clipPath id="clip0_2_41">
<rect width="200" height="50" fill="white"/>
</clipPath>
</defs>
</svg>
