<svg width="200" height="50" viewBox="0 0 200 50" fill="none" xmlns="http://www.w3.org/2000/svg">
<path d="M23.2 12.3286L11.6 19.6572L23.2 26.9858L11.6 34.3144L0 26.9462L11.6 19.6176L0 12.3286L11.6 5L23.2 12.3286ZM11.54 36.6714L23.14 29.3428L34.74 36.6714L23.14 44L11.54 36.6714ZM23.2 26.9462L34.8 19.6176L23.2 12.3286L34.74 5L46.34 12.3286L34.74 19.6572L46.34 26.9858L34.74 34.3144L23.2 26.9462Z" fill="#0061FF"/>
<path d="M55.44 12.3286H64.82C70.8 12.3286 75.74 15.7552 75.74 23.579V25.223C75.74 33.1062 71.12 36.6516 65 36.6516H55.44V12.3286ZM60.68 16.7456V32.2148H64.7C68.1 32.2148 70.38 30.0163 70.38 25.1239V23.8365C70.38 18.9441 67.98 16.7456 64.52 16.7456H60.68ZM78.52 16.9832H82.72L83.4 21.5587C84.2 18.449 86.24 16.7852 89.94 16.7852H91.24V22.034H89.08C84.82 22.034 83.78 23.4998 83.78 27.6592V36.711H78.6V16.9832H78.52ZM92.28 27.2433V26.6887C92.28 20.0929 96.54 16.4881 102.34 16.4881C108.26 16.4881 112.4 20.0929 112.4 26.6887V27.2433C112.4 33.7202 108.38 37.2062 102.34 37.2062C95.92 37.1468 92.28 33.74 92.28 27.2433ZM107.1 27.1839V26.6887C107.1 23.0244 105.24 20.8258 102.28 20.8258C99.38 20.8258 97.46 22.8461 97.46 26.6887V27.1839C97.46 30.7293 99.32 32.7496 102.28 32.7496C105.24 32.6902 107.1 30.7293 107.1 27.1839ZM115.12 16.9832H119.44L119.94 20.707C120.98 18.2113 123.2 16.4881 126.48 16.4881C131.54 16.4881 134.88 20.0929 134.88 26.7679V27.3225C134.88 33.7994 131.18 37.226 126.48 37.226C123.34 37.226 121.18 35.8197 120.12 33.5617V43.5246H115.06L115.12 16.9832ZM129.62 27.1839V26.7481C129.62 22.8263 127.58 20.8852 124.86 20.8852C121.96 20.8852 120.04 23.0838 120.04 26.7481V27.1244C120.04 30.6105 121.9 32.809 124.8 32.809C127.78 32.7496 129.62 30.868 129.62 27.1839ZM142.54 33.0665L142.1 36.6714H137.66V10.3875H142.72V20.4693C143.84 17.8944 146.06 16.4881 149.2 16.4881C153.96 16.5475 157.48 19.7958 157.48 26.3322V26.9462C157.48 33.4825 154.14 37.226 149.08 37.226C145.74 37.1468 143.58 35.6216 142.54 33.0665ZM152.16 26.9462V26.451C152.16 22.8461 150.18 20.8258 147.4 20.8258C144.56 20.8258 142.58 23.0838 142.58 26.5104V26.9462C142.58 30.6105 144.5 32.7496 147.34 32.7496C150.38 32.7496 152.16 30.868 152.16 26.9462ZM159.7 27.2433V26.6887C159.7 20.0929 163.96 16.4881 169.76 16.4881C175.68 16.4881 179.82 20.0929 179.82 26.6887V27.2433C179.82 33.7202 175.74 37.2062 169.76 37.2062C163.34 37.1468 159.7 33.74 159.7 27.2433ZM174.56 27.1839V26.6887C174.56 23.0244 172.7 20.8258 169.74 20.8258C166.84 20.8258 164.92 22.8461 164.92 26.6887V27.1839C164.92 30.7293 166.78 32.7496 169.74 32.7496C172.72 32.6902 174.56 30.7293 174.56 27.1839ZM186.6 26.451L179.62 16.9832H185.6L189.62 22.9055L193.7 16.9832H199.62L192.54 26.3916L200 36.6714H194.14L189.58 30.1351L185.14 36.6714H179.02L186.6 26.451Z" fill="black"/>
</svg>
