<svg width="200" height="50" viewBox="0 0 200 50" fill="none" xmlns="http://www.w3.org/2000/svg">
<g clip-path="url(#clip0_1_24)">
<path d="M0.191304 45.9503C2.66087 39.4708 3.98261 32.3794 3.98261 25C3.98261 17.6206 2.67826 10.5292 0.191304 4.04968C0.0695652 3.7257 0 3.34773 0 2.96976C0 1.43988 1.14783 0 2.78261 0C3.82609 0 4.81739 0.665947 5.21739 1.69186C7.93044 8.90929 9.44348 16.7567 9.44348 25C9.44348 33.2073 7.93044 41.0907 5.21739 48.3081C4.81739 49.3341 3.82609 50 2.78261 50C1.14783 50 0 48.5601 0 47.0302C0 46.6523 0.0869565 46.2923 0.191304 45.9503Z" fill="#5B53FF"/>
<path d="M13.2 40.7127C14.313 35.6732 14.9217 30.3996 14.9217 25C14.9217 19.6004 14.3304 14.3089 13.2 9.25126C13.1652 9.05328 13.113 8.8013 13.113 8.58532C13.113 7.01944 14.313 5.65155 15.8957 5.65155C17.0957 5.65155 18.1739 6.51548 18.4522 7.75738C19.7217 13.2829 20.4 19.0605 20.4 25C20.4 30.9395 19.7217 36.7171 18.4522 42.2426C18.1739 43.4845 17.0957 44.3485 15.8957 44.3485C14.2957 44.3485 13.113 42.9446 13.113 41.3787C13.113 41.1627 13.1478 40.9287 13.2 40.7127Z" fill="#5B53FF"/>
<path d="M25.8609 25C25.8609 22.4082 25.7391 19.8884 25.4957 17.3686C25.3391 15.6407 26.6087 14.1469 28.2435 14.1469C29.6348 14.1469 30.8 15.2268 30.9217 16.6307C31.2 19.4024 31.3217 22.1562 31.3217 25C31.3217 27.8078 31.2 30.6155 30.9217 33.3693C30.8 34.7732 29.6522 35.8531 28.2435 35.8531C26.6087 35.8531 25.3391 34.3233 25.4957 32.6314C25.7391 30.1116 25.8609 27.5558 25.8609 25Z" fill="#5B53FF"/>
<path d="M42.2957 25C42.2957 25.7019 42.0174 26.4399 41.4957 26.9798L39.8957 28.6357C39.5304 29.0137 39.0609 29.1757 38.6261 29.1757C37.7044 29.1757 36.8 28.4377 36.8 27.2858V22.7502C36.8 21.5983 37.7217 20.8603 38.6261 20.8603C39.0609 20.8603 39.5478 21.0223 39.8957 21.4003L41.4957 23.0022C42.0174 23.5061 42.2957 24.2621 42.2957 25Z" fill="#5B53FF"/>
<path d="M60.1391 20.0144V38.031H64.2783V20.0144H71.3043V16.1807H64.2957V14.8668C64.2957 12.851 65.287 11.7351 67.1304 11.7351H71.2348V7.84737H67.1304C62.6261 7.84737 60.1565 10.2772 60.1565 14.8668V16.1807H56.6435V20.0144H60.1391Z" fill="#0D0D18"/>
<path d="M73.7391 16.2167H76.8L77.4435 20.7523C78.6435 17.6566 80.9565 16.0007 84.6261 16.0007H85.3913V20.1584H84.6783C79.9826 20.1584 77.8957 22.6782 77.8957 27.3758V38.013H73.7391V16.2167Z" fill="#0D0D18"/>
<path d="M109.687 16.2167H112.922L113.322 19.6904C114.765 17.1706 117.513 15.5688 120.504 15.5688C123.252 15.5688 125.287 17.0626 126.33 19.6544C126.365 19.7444 126.452 19.7444 126.487 19.6544C127.843 17.1346 130.557 15.5688 133.704 15.5688C137.53 15.5688 140.122 18.5385 140.122 23.2361V38.049H135.983V24.2801C135.983 21.1483 134.783 19.4204 132.557 19.4204C129.443 19.4204 127.009 21.6883 127.009 24.748V38.067H122.87V24.2981C122.87 21.1663 121.67 19.4384 119.443 19.4384C116.33 19.4384 113.861 21.9222 113.861 25.252V38.085H109.722V16.2167H109.687Z" fill="#0D0D18"/>
<path d="M166.835 32.5054C168.47 32.5054 169.67 33.7473 169.67 35.4392C169.67 37.095 168.47 38.3729 166.835 38.3729C165.2 38.3729 163.965 37.095 163.965 35.4392C163.965 33.7473 165.2 32.5054 166.835 32.5054Z" fill="#0D0D18"/>
<path d="M169.548 16.2167H171.861C174.696 16.2167 176.174 17.9086 176.174 21.1303V38.049H172.035V22.0482C172.035 20.8603 171.513 20.2304 170.591 20.2304H169.548V16.2167Z" fill="#0D0D18"/>
<path d="M189.391 15.5868C183.339 15.5868 178.8 19.7264 178.783 26.8899C178.783 33.5853 182.661 38.4449 189.391 38.4449C195.583 38.4449 200 34.1973 200 26.8899C200 20.4104 196.087 15.5868 189.391 15.5868ZM189.391 34.6112C185.739 34.6112 183.096 31.8935 183.096 26.8899C183.096 22.3002 185.443 19.4204 189.391 19.4204C193.339 19.4204 195.687 22.3182 195.687 26.8899C195.687 31.3535 193.496 34.6112 189.391 34.6112Z" fill="#0D0D18"/>
<path d="M173.252 7.66739C174.852 7.66739 176.035 8.90929 176.035 10.5472C176.035 12.149 174.835 13.4269 173.252 13.4269C171.617 13.4269 170.417 12.149 170.417 10.5472C170.435 8.90929 171.617 7.66739 173.252 7.66739Z" fill="#0D0D18"/>
<path d="M106.417 34.1613C105.583 34.1613 105.148 33.6573 105.148 32.7574V24.0101C105.148 18.7365 101.843 15.5508 96.2261 15.5508C90.9565 15.5508 87.0609 18.5565 86.6261 22.9302H90.887C91.3217 20.5004 92.9913 19.3485 96.1043 19.3485C99.287 19.3485 101.009 20.7883 101.009 23.5601C101.009 24.55 99.2174 24.802 96.6261 25.054C91.287 25.594 86.0696 26.1699 86.0696 31.9834C86.0522 35.7991 89.3217 38.4449 94.0174 38.4449C98.3304 38.4449 100.435 37.005 101.513 34.8092C101.913 36.8251 103.148 38.031 105.426 38.031H107.339V34.1613H106.417ZM100.991 29.0857C100.991 32.3074 98.5913 34.8272 94.7652 34.8272C91.9304 34.8272 90.3478 33.7113 90.3478 31.7315C90.3478 28.7977 93.6174 28.4737 96.7652 28.2217C99.3913 28.0238 100.313 27.6458 100.991 27.0698V29.0857Z" fill="#0D0D18"/>
<path d="M147.426 27.8618H163.252V26.4399C163.252 19.8344 159.183 15.5508 153.165 15.5508C147.304 15.5508 142.73 19.8884 142.73 27.2318C142.73 33.8193 146.991 38.6609 153.496 38.6609C158.47 38.6609 162.226 35.5652 163.183 30.9035H158.922C158.209 33.4233 156.365 34.7012 153.496 34.7012C149.757 34.7012 147.478 32.2714 147.235 28.0238C147.235 27.9338 147.322 27.8618 147.426 27.8618ZM153.165 19.3845C156.157 19.3845 158.313 21.3283 158.783 24.532H147.339C147.948 21.2383 150.017 19.3845 153.165 19.3845Z" fill="#0D0D18"/>
</g>
<defs>
<clipPath id="clip0_1_24">
<rect width="200" height="50" fill="white"/>
</clipPath>
</defs>
</svg>
