<svg width="200" height="50" viewBox="0 0 200 50" fill="none" xmlns="http://www.w3.org/2000/svg">
<g clip-path="url(#clip0_1_2)">
<path d="M37.9428 33.3113L40.3524 41.5377L46.6571 48.2642C47.5241 47.7655 48.2435 47.0498 48.7429 46.1887L54.6095 36.1321C55.1098 35.2712 55.3725 34.2952 55.3714 33.3019L46.3714 31.5755L37.9428 33.3113Z" fill="#EA4335"/>
<path d="M36.4 0.754709C35.531 0.259175 34.5456 -0.00110031 33.5428 3.49625e-06H21.8286C20.8263 0.00239768 19.8418 0.262438 18.9714 0.754709L21.4952 9.17923L27.6571 15.6604L33.8667 9.05661L36.4 0.754709Z" fill="#188038"/>
<path d="M17.4287 33.3113L8.4382 31.2736L-0.00943403 33.3113C-0.0105483 34.3046 0.252221 35.2807 0.752474 36.1415L6.61914 46.1981C7.11855 47.0592 7.83786 47.775 8.70486 48.2736L14.9144 41.934L17.4287 33.3113Z" fill="#1967D2"/>
<path d="M46.5524 16.6509L38.4952 2.82075C37.9958 1.95967 37.2765 1.24391 36.4095 0.7453L27.6857 15.7076L37.9428 33.3019H55.3714C55.3726 32.3086 55.1098 31.3325 54.6095 30.4717L46.5524 16.6509Z" fill="#FBBC04"/>
<path d="M37.9428 33.3113H17.4286L8.71428 48.2642C9.58332 48.7597 10.5687 49.02 11.5714 49.0189H43.8C44.8027 49.02 45.7881 48.7597 46.6571 48.2642L37.9428 33.3113Z" fill="#4285F4"/>
<path d="M27.6857 15.7076L18.9714 0.754715C18.1056 1.25072 17.3864 1.96314 16.8857 2.82076L0.761897 30.4906C0.261644 31.3514 -0.00111078 32.3275 3.52955e-06 33.3208H17.4286L27.6857 15.7076Z" fill="#34A853"/>
<path d="M189.59 22.9623C190.443 22.9104 191.292 23.1093 192.031 23.534C192.77 23.9586 193.365 24.5901 193.743 25.3491L183.838 29.4057C183.838 24.849 187.095 22.9623 189.59 22.9623ZM189.933 36.3208C188.817 36.3621 187.713 36.0704 186.766 35.4834C185.818 34.8964 185.07 34.0411 184.619 33.0283L199.267 27.0283L198.781 25.7925C197.829 23.3679 195.086 18.8773 189.41 18.8773C183.733 18.8773 179.076 23.2641 179.076 29.7358C179.043 31.1629 179.3 32.582 179.833 33.9081C180.366 35.2343 181.164 36.4404 182.178 37.4541C183.193 38.4679 184.403 39.2685 185.738 39.808C187.072 40.3476 188.502 40.615 189.943 40.5943C191.747 40.6026 193.525 40.1684 195.119 39.3305C196.712 38.4927 198.072 37.2772 199.076 35.7925L195.343 33.3302C194.781 34.2469 193.989 35.004 193.045 35.528C192.1 36.052 191.035 36.3251 189.952 36.3208H189.933ZM170.581 7.77358H175.343V40.6038H170.581V7.77358ZM132.867 36.3208C131.532 36.4154 130.199 36.1101 129.042 35.4444C127.885 34.7787 126.957 33.7834 126.379 32.5881C125.8 31.3928 125.598 30.0528 125.799 28.7423C126 27.4319 126.595 26.2116 127.505 25.2403C128.416 24.269 129.6 23.5916 130.905 23.2962C132.209 23.0008 133.573 23.101 134.819 23.584C136.066 24.0669 137.136 24.9101 137.892 26.0039C138.648 27.0977 139.054 28.3915 139.057 29.717C139.102 30.5564 138.976 31.3962 138.687 32.1865C138.398 32.9768 137.951 33.7015 137.374 34.3175C136.796 34.9334 136.1 35.4282 135.325 35.7723C134.551 36.1165 133.715 36.303 132.867 36.3208ZM132.867 18.8868C130.7 18.8942 128.585 19.5374 126.787 20.7351C124.989 21.9328 123.59 23.6312 122.766 25.616C121.943 27.6008 121.731 29.7829 122.158 31.8867C122.585 33.9906 123.632 35.9218 125.167 37.4366C126.702 38.9515 128.655 39.9819 130.78 40.3978C132.906 40.8138 135.108 40.5965 137.108 39.7736C139.109 38.9506 140.819 37.5589 142.022 35.774C143.225 33.9892 143.867 31.8913 143.867 29.7453C143.887 28.3109 143.617 26.8871 143.071 25.5585C142.524 24.2298 141.714 23.0235 140.688 22.0114C139.662 20.9992 138.44 20.2018 137.097 19.6667C135.753 19.1315 134.315 18.8695 132.867 18.8962V18.8868ZM156.676 36.3208C153.352 36.3208 150.829 33.4906 150.829 29.717C150.829 25.9434 153.352 23.1132 156.676 23.1132C160 23.1132 162.524 25.9434 162.524 29.717C162.524 33.4906 159.99 36.3208 156.676 36.3208ZM162.2 21.3208H162.029C161.295 20.5342 160.401 19.9113 159.406 19.4933C158.411 19.0752 157.338 18.8717 156.257 18.8962C150.79 18.8962 146.019 23.6132 146.019 29.7547C146.019 35.8962 150.781 40.6132 156.257 40.6132C157.342 40.6416 158.42 40.4362 159.416 40.011C160.413 39.5859 161.304 38.9512 162.029 38.151H162.2V39.6604C162.2 43.8113 159.952 46.0283 156.352 46.0283C155.148 45.9985 153.98 45.6149 152.997 44.9262C152.013 44.2375 151.259 43.2748 150.829 42.1604L146.638 43.8773C147.433 45.779 148.782 47.4035 150.511 48.5441C152.241 49.6847 154.274 50.29 156.352 50.283C161.99 50.283 166.762 46.9906 166.762 38.9623V19.4811H162.2V21.3208ZM108.295 36.3208C106.961 36.4154 105.628 36.1101 104.471 35.4444C103.314 34.7787 102.386 33.7834 101.807 32.5881C101.229 31.3928 101.027 30.0528 101.228 28.7423C101.429 27.4319 102.023 26.2116 102.934 25.2403C103.844 24.269 105.029 23.5916 106.333 23.2962C107.638 23.0008 109.002 23.101 110.248 23.584C111.494 24.0669 112.565 24.9101 113.32 26.0039C114.076 27.0977 114.482 28.3915 114.486 29.717C114.531 30.5564 114.405 31.3962 114.115 32.1865C113.826 32.9768 113.38 33.7015 112.802 34.3175C112.225 34.9334 111.528 35.4282 110.754 35.7723C109.98 36.1165 109.144 36.303 108.295 36.3208ZM108.295 18.8868C106.129 18.8942 104.013 19.5374 102.216 20.7351C100.418 21.9328 99.0188 23.6312 98.195 25.616C97.3711 27.6008 97.1595 29.7829 97.5867 31.8867C98.014 33.9906 99.061 35.9218 100.596 37.4366C102.13 38.9515 104.083 39.9819 106.209 40.3978C108.334 40.8138 110.536 40.5965 112.537 39.7736C114.538 38.9506 116.248 37.5589 117.45 35.774C118.653 33.9892 119.295 31.8913 119.295 29.7453C119.317 28.3101 119.047 26.8852 118.502 25.5555C117.956 24.2258 117.146 23.0184 116.12 22.0052C115.094 20.9921 113.872 20.1938 112.528 19.6581C111.183 19.1224 109.744 18.86 108.295 18.8868ZM78.5714 22.6604V27.2547H89.6572C89.4875 29.4093 88.5997 31.447 87.1333 33.0472C86.0212 34.1696 84.6836 35.0485 83.2072 35.6269C81.7308 36.2054 80.1483 36.4707 78.5619 36.4057C75.478 36.137 72.6076 34.7336 70.5166 32.4721C68.4256 30.2107 67.2658 27.2553 67.2658 24.1887C67.2658 21.122 68.4256 18.1667 70.5166 15.9053C72.6076 13.6438 75.478 12.2404 78.5619 11.9717C81.6757 11.9335 84.6783 13.1171 86.9143 15.2642L90.1809 12.0283C88.6648 10.5074 86.8541 9.30563 84.8575 8.49506C82.8608 7.6845 80.7195 7.28187 78.5619 7.31133C76.2987 7.25822 74.0477 7.65392 71.9411 8.47514C69.8346 9.29636 67.9151 10.5265 66.2955 12.0933C64.6759 13.6601 63.3889 15.5318 62.5102 17.5984C61.6315 19.6651 61.1788 21.8849 61.1788 24.1273C61.1788 26.3698 61.6315 28.5896 62.5102 30.6563C63.3889 32.7229 64.6759 34.5947 66.2955 36.1614C67.9151 37.7282 69.8346 38.9584 71.9411 39.7796C74.0477 40.6008 76.2987 40.9965 78.5619 40.9434C80.7612 41.0318 82.9543 40.6571 84.9966 39.844C87.0389 39.0309 88.8838 37.7979 90.4095 36.2264C93.4667 33.1981 94.4286 28.9245 94.4286 25.4811C94.4381 24.532 94.3551 23.5843 94.181 22.6509L78.5714 22.6604Z" fill="#5F6368"/>
</g>
<defs>
<clipPath id="clip0_1_2">
<rect width="200" height="50" fill="white"/>
</clipPath>
</defs>
</svg>
