<svg width="200" height="50" viewBox="0 0 200 50" fill="none" xmlns="http://www.w3.org/2000/svg">
<path d="M4.90728 37.9872C4.03526 37.9891 3.17837 37.7599 2.42414 37.3231C1.66991 36.8862 1.04537 36.2573 0.614342 35.5007C0.189905 34.7494 -0.0217721 33.897 0.0019838 33.0348C0.0257397 32.1726 0.284034 31.3331 0.749198 30.6062L9.5898 16.7489C10.0423 16.0042 10.6847 15.3927 11.4514 14.9768C12.2181 14.561 13.0817 14.3558 13.9539 14.3821C14.8254 14.4029 15.6758 14.6545 16.4179 15.1111C17.16 15.5677 17.7673 16.213 18.1776 16.9808C19.0017 18.5362 18.8987 20.4077 17.9116 21.8678L9.0766 35.725C8.62857 36.4219 8.01154 36.9946 7.28271 37.3901C6.55387 37.7855 5.73682 37.9909 4.90728 37.9872Z" fill="#F62B54"/>
<path d="M20.0714 37.9868C18.2882 37.9868 16.6475 37.0352 15.7859 35.5059C15.3624 34.7567 15.1512 33.9065 15.175 33.0465C15.1987 32.1866 15.4566 31.3493 15.9208 30.6245L24.7445 16.799C25.1903 16.0438 25.8304 15.4214 26.5985 14.9964C27.3665 14.5713 28.2345 14.3591 29.1124 14.3817C30.9105 14.421 32.54 15.4249 33.3641 16.9954C34.1826 18.5658 34.0627 20.4484 33.0457 21.9048L24.2238 35.7303C23.7772 36.4242 23.1626 36.9946 22.4369 37.389C21.7112 37.7834 20.8977 37.989 20.0714 37.9868Z" fill="#FFCC00"/>
<path d="M34.8962 38.1027C37.4099 38.1027 39.4476 36.1114 39.4476 33.655C39.4476 31.1987 37.4099 29.2074 34.8962 29.2074C32.3826 29.2074 30.3448 31.1987 30.3448 33.655C30.3448 36.1114 32.3826 38.1027 34.8962 38.1027Z" fill="#00CA72"/>
<path fill-rule="evenodd" clip-rule="evenodd" d="M199.227 15.509H192.576L187.914 27.506L183.276 15.509H176.625L184.711 34.4664L179.682 47H186.284L199.227 15.509ZM158.777 26.0534C158.777 29.0821 161.429 31.075 164.035 31.075C166.595 31.075 169.11 29.2204 169.11 26.0515C169.11 22.8826 166.595 21.0261 164.035 21.0261C161.429 21.0261 158.777 23.0228 158.777 26.0534ZM169.11 36.6389V34.2402C167.762 36.278 164.615 37.0483 163.001 37.0483C157.655 37.0483 152.308 32.8418 152.308 26.0515C152.308 19.2631 157.653 15.0566 163.001 15.0566C164.347 15.0566 167.494 15.5053 169.11 17.861V15.5165H175.31V36.6426L169.11 36.6389ZM150.543 36.6389H144.344V34.014C143.308 35.9584 140.796 37.0913 138.189 37.0913C132.797 37.0913 128.033 32.7932 128.033 26.1375C128.033 19.3566 132.797 15.0529 138.189 15.0529C140.792 15.0529 143.312 16.1372 144.344 18.0834V4H150.543V36.6389ZM144.209 26.0048C144.209 22.8377 141.918 20.9813 139.358 20.9813C136.706 20.9813 134.503 22.9724 134.503 26.0048C134.503 29.1344 136.706 31.1162 139.356 31.1162C141.965 31.1199 144.209 29.0372 144.209 26.0048ZM112.705 25.4589C112.705 22.247 114.368 21.1607 116.569 21.1607C118.68 21.1607 120.208 22.5629 120.208 25.3673V36.6351H126.453V24.0118C126.453 17.9956 123.486 15.0529 118.768 15.0529C116.297 15.0529 113.827 16.455 112.703 18.5826V15.509H106.462V36.6351H112.705V25.4589ZM93.7818 36.9978C87.8518 36.9978 82.9052 32.6548 82.9052 26.0029C82.9052 19.3473 87.8462 15.0473 93.7818 15.0473C99.7173 15.0473 104.701 19.3473 104.701 26.0029C104.701 32.6586 99.7117 36.9978 93.7818 36.9978ZM93.7818 30.847C96.3852 30.847 98.5448 28.9437 98.5448 26.0048C98.5448 23.1537 96.3871 21.2075 93.7818 21.2075C93.1544 21.1977 92.5317 21.3155 91.9514 21.5536C91.3712 21.7918 90.8455 22.1454 90.4066 22.5928C89.9651 23.0427 89.6187 23.5765 89.388 24.1627C89.1573 24.7488 89.047 25.3753 89.0636 26.0048C89.0655 28.9475 91.2213 30.847 93.7818 30.847ZM71.7102 21.1626C73.5514 21.1626 75.1697 22.6115 75.1697 25.3691V36.6389H81.3693V24.64C81.3693 18.261 78.262 15.0491 73.2817 15.0491C71.802 15.0491 69.0149 15.4978 66.9921 18.8032C65.8233 16.3597 63.5776 15.0921 60.2586 15.0921C59.1063 15.0863 57.9767 15.4118 57.0048 16.0298C56.0329 16.6478 55.2599 17.5321 54.7782 18.577V15.5109H48.5298V36.637H54.7726V25.4589C54.7726 22.247 56.5257 21.1607 58.4118 21.1607C60.2099 21.1607 61.8245 22.5629 61.8713 25.2327V36.637H68.1159V25.4589C68.1159 22.3872 69.7342 21.1626 71.7102 21.1626Z" fill="#333333"/>
</svg>
