<svg width="200" height="50" viewBox="0 0 200 50" fill="none" xmlns="http://www.w3.org/2000/svg">
<g clip-path="url(#clip0_15_2)">
<path d="M200 11.1595H195.251L181.436 25.2174V11.1595H177.675V39.1157H181.436V30.0888L186.78 24.6168L195.488 39.1136H199.881L189.471 21.8998L200 11.1595ZM157.014 36.4805C151.946 36.4805 148.82 33.0453 148.82 28.1738C148.82 20.705 155.155 13.7968 162.635 13.7968C167.702 13.7968 170.868 17.232 170.868 22.1034C170.868 29.5303 164.456 36.4805 157.014 36.4805ZM156.855 39.9157C166.554 39.9157 174.708 31.3697 174.708 21.862C174.708 14.9139 169.958 10.3595 162.793 10.3595C153.095 10.3595 144.98 18.8656 144.98 28.451C144.978 35.4012 149.69 39.9157 156.855 39.9157ZM125.94 36.4805C120.874 36.4805 117.746 33.0453 117.746 28.1738C117.746 20.705 124.079 13.7968 131.561 13.7968C136.626 13.7968 139.794 17.232 139.794 22.1034C139.794 29.5303 133.382 36.4805 125.94 36.4805ZM125.782 39.9157C135.48 39.9157 143.634 31.3697 143.634 21.862C143.634 14.9139 138.885 10.3595 131.719 10.3595C122.021 10.3595 113.906 18.8656 113.906 28.451C113.906 35.4012 118.616 39.9157 125.782 39.9157ZM94.7076 36.1193V26.4541H103.336C106.385 26.4541 108.483 28.4111 108.483 31.2857C108.483 34.1204 106.385 36.1193 103.336 36.1193H94.7076ZM94.7076 23.5397V14.1139H102.506C105.553 14.1139 107.692 16.0708 107.692 18.8278C107.692 21.5827 105.555 23.5397 102.506 23.5397H94.7076ZM90.947 39.1157H103.771C108.76 39.1157 112.241 36.0416 112.241 31.6468C112.241 28.0122 109.709 25.3371 105.829 24.8961C109.113 24.3775 111.372 21.8221 111.372 18.6262C111.372 14.2335 107.888 11.1574 102.901 11.1574H90.947V39.1157Z" fill="black"/>
<path d="M73.9584 38.9477H77.7981V29.5618L88.4079 10.9894H84.1332L75.9001 25.5281L67.6649 10.9894H63.3507L73.9605 29.5618V38.9477H73.9584ZM48.8262 28.0038L54.0916 14.3049L59.3548 28.0038H48.8262ZM63.5525 38.9477H67.3923L56.5453 10.9894H51.796L40.9116 38.9456H44.5931L47.64 31.0379H60.5057L63.5525 38.9477ZM22.9428 38.9477H39.7981V35.7519H26.8221V10.9894H22.9428V38.9477ZM3.87929 25.6079V14.1055H10.41C13.8939 14.1055 16.308 16.4614 16.308 19.8567C16.308 23.252 13.8939 25.6079 10.41 25.6079H3.87929ZM0 38.9477H3.87929V28.7219H10.7659C16.308 28.7219 20.2268 24.9675 20.2268 19.8567C20.2268 14.7837 16.308 10.9894 10.7659 10.9894H0V38.9477Z" fill="black"/>
</g>
<defs>
<clipPath id="clip0_15_2">
<rect width="200" height="50" fill="white"/>
</clipPath>
</defs>
</svg>
