<svg width="200" height="50" viewBox="0 0 200 50" fill="none" xmlns="http://www.w3.org/2000/svg">
<path fill-rule="evenodd" clip-rule="evenodd" d="M43.855 7H17.1619C14.8656 7 13.0032 8.85991 13 11.1562V37.8101C12.9956 38.9168 13.4321 39.9797 14.2131 40.7639C14.9941 41.548 16.0552 41.9888 17.1619 41.9888H43.855C44.9608 41.9873 46.0205 41.5459 46.8002 40.7619C47.58 39.9779 48.0158 38.9158 48.0113 37.8101V11.1562C48.0082 8.8621 46.1492 7.00309 43.855 7ZM28.0994 32.2011C28.0979 32.571 27.9492 32.9251 27.6861 33.1851C27.4229 33.4451 27.0671 33.5895 26.6972 33.5866H20.8638C20.1009 33.5834 19.484 32.9641 19.484 32.2011V14.8413C19.484 14.0784 20.1009 13.459 20.8638 13.4559H26.6972C27.4611 13.459 28.0795 14.0775 28.0826 14.8413L28.0994 32.2011ZM41.561 24.2308C41.561 24.6011 41.4127 24.9561 41.1493 25.2164C40.8858 25.4767 40.5291 25.6207 40.1587 25.6163H34.3254C33.5615 25.6131 32.943 24.9946 32.94 24.2308V14.8413C32.943 14.0775 33.5615 13.459 34.3254 13.4559H40.1587C40.9217 13.459 41.5385 14.0784 41.5385 14.8413L41.561 24.2308Z" fill="url(#paint0_linear_5_45)"/>
<path d="M85.5465 9.5633V16.3277H77.5313V41.9888H69.8022V16.3277H61.7869V9.5633H85.5465Z" fill="#293856"/>
<path d="M95.3847 41.9888H88.2388V16.7484H95.3847V21.5833C96.742 18.1787 98.9127 16.1538 102.777 16.4006V23.8774C97.7292 23.4848 95.3847 24.7187 95.3847 28.7628V41.9888Z" fill="#293856"/>
<path d="M141.816 42.1851C137.132 42.1851 134.188 39.9415 134.188 34.6354V7H141.384V33.6482C141.384 35.1795 142.393 35.7236 143.627 35.7236C143.983 35.7308 144.339 35.7139 144.693 35.6731V41.8934C143.752 42.1227 142.784 42.2208 141.816 42.1851Z" fill="#293856"/>
<path d="M156.825 42.1851C152.142 42.1851 149.192 39.9415 149.192 34.6354V7H156.388V33.6482C156.388 35.1795 157.403 35.7236 158.66 35.7236C159.014 35.7309 159.368 35.714 159.72 35.6731V41.8934C158.773 42.1249 157.799 42.2231 156.825 42.1851Z" fill="#293856"/>
<path d="M163.169 29.3574C163.169 21.5609 167.656 16.2268 175.385 16.2268C183.115 16.2268 187.506 21.5441 187.506 29.3574C187.506 37.1707 183.064 42.5833 175.385 42.5833C167.707 42.5833 163.169 37.1034 163.169 29.3574ZM170.175 29.3574C170.175 33.1546 171.768 36.1667 175.385 36.1667C179.003 36.1667 180.506 33.1546 180.506 29.3574C180.506 25.5601 178.964 22.6266 175.385 22.6266C171.807 22.6266 170.175 25.5545 170.175 29.3574Z" fill="#293856"/>
<path d="M112.425 31.6402C114.425 31.8601 116.436 31.978 118.449 31.9936C123.923 31.9936 128.545 30.524 128.545 25.2236C128.545 20.0801 123.794 16.2155 118.079 16.2155C110.383 16.2155 105.453 21.7965 105.453 29.5929C105.453 37.6867 109.704 42.4936 119.313 42.4936C122.163 42.5168 124.993 42.0109 127.659 41.0016V34.9551C125.191 35.746 122.414 36.5313 119.565 36.5313C115.74 36.5313 113.075 35.2748 112.425 31.6402ZM117.933 21.7236C119.958 21.7236 121.584 23.0978 121.584 24.9768C121.584 27.3942 119.032 28.1514 116.093 28.1514C114.842 28.1457 113.593 28.0463 112.357 27.8542C112.451 26.6756 112.789 25.5294 113.35 24.4888C114.267 22.8095 116.02 21.7564 117.933 21.7348V21.7236Z" fill="#293856"/>
<defs>
<linearGradient id="paint0_linear_5_45" x1="5480.02" y1="2246.28" x2="5480.02" y2="7" gradientUnits="userSpaceOnUse">
<stop stop-color="#0052CC"/>
<stop offset="1" stop-color="#2684FF"/>
</linearGradient>
</defs>
</svg>
