<svg width="200" height="50" viewBox="0 0 200 50" fill="none" xmlns="http://www.w3.org/2000/svg">
<g clip-path="url(#clip0_5_23)">
<path d="M56.92 22.584H55.7918C54.6627 22.584 53.8445 22.0063 53.8445 20.8508V20.1492C53.8445 19.035 54.6627 18.4169 55.8336 18.4169H57.0464V14.4148C57.0464 13.3005 57.6736 12.6815 58.8009 12.6815H60.4736C61.6027 12.6815 62.23 13.3014 62.23 14.4148V18.4169H65.7882C66.9173 18.4169 67.8336 19.035 67.8336 20.1492V20.8508C67.8336 22.0063 66.9173 22.584 65.83 22.584H62.23V31.0431C62.23 34.1785 64.1955 34.7984 65.6591 34.9635C66.9545 35.0855 67.8791 35.5009 67.8791 36.6573V37.9348C67.8791 39.1719 66.7045 39.6681 65.2409 39.6681C61.4364 39.6681 56.9209 37.6459 56.9209 31.951L56.92 22.584ZM97.2664 26.4623H98.1436V25.968C98.1436 23.2022 96.3464 22.2521 94.1727 22.2521C92.7009 22.2521 91.3418 22.637 90.3464 23.0909C88.8473 23.7754 87.3673 23.8831 87.3673 22.0951V21.1029C87.3673 20.064 87.4618 19.4728 88.8855 18.9363C90.32 18.3944 92.3782 17.9208 94.6309 17.9208C100.15 17.9208 103.455 20.9728 103.455 26.2964V37.7258C103.455 38.8813 102.867 39.4572 101.698 39.4572H100.276C99.1473 39.4572 98.5627 38.8804 98.5627 37.7258V36.9004C98.5627 36.3209 98.6455 35.9916 98.6455 35.9916H98.5627C98.5627 35.9916 96.5545 39.9534 91.8718 39.9534C87.9845 39.9534 84.8064 37.4773 84.8064 33.6403C84.8073 27.494 92.5009 26.4623 97.2664 26.4623ZM93.2945 35.9539C96.2636 35.9539 98.1864 32.9818 98.1864 30.4222V29.6408H97.3073C94.6309 29.6408 90.0745 30.0526 90.0745 33.1872C90.0755 34.5912 91.1618 35.9539 93.2945 35.9539ZM108.042 37.7276C108.042 38.8831 108.626 39.459 109.755 39.459H111.595C112.724 39.459 113.31 38.8822 113.31 37.7276V29.5987C113.31 25.8029 115.693 22.7078 119.455 22.7078C122.133 22.7078 122.802 24.4402 122.802 26.9988V37.7276C122.802 38.8831 123.427 39.4599 124.559 39.4599H126.356C127.526 39.4599 128.113 38.8822 128.113 37.7276V25.9285C128.113 20.3574 125.395 17.9225 120.671 17.9225C116.365 17.9225 114.022 20.6041 113.103 22.3768H113.018C113.018 22.3768 113.103 21.8825 113.103 21.4285V20.1492C113.103 19.035 112.517 18.416 111.386 18.416H109.756C108.628 18.416 108.043 19.035 108.043 20.1492L108.042 37.7276ZM132.121 37.8092C134.214 39.2217 136.694 39.9704 139.229 39.9551C144.162 39.9551 147.34 37.192 147.34 33.4788C147.34 26.2981 136.761 27.6582 136.761 24.1935C136.761 22.8729 137.805 22.1301 139.646 22.1301C141.403 22.1301 142.782 22.75 143.703 23.1618C144.747 23.6157 145.541 23.4937 146.044 22.5015L146.463 21.7587C146.921 20.8104 146.796 19.9429 145.835 19.4477C144.025 18.4343 141.978 17.9081 139.897 17.9217C135.424 17.9217 131.745 20.1071 131.745 24.2347C131.745 31.4548 142.323 30.1755 142.323 33.6008C142.323 34.9205 141.195 35.7467 139.355 35.7467C137.18 35.7467 135.591 34.8379 134.588 34.3023C133.545 33.7667 132.833 33.8475 132.205 34.7159L131.704 35.4587C131.075 36.3657 131.157 37.2736 132.121 37.8092ZM152.266 37.7276C152.266 38.8831 152.854 39.459 153.982 39.459H155.822C156.949 39.459 157.577 38.8822 157.577 37.7276V22.584H160.715C161.843 22.584 162.428 22.0063 162.428 20.8508V20.1492C162.428 19.035 161.843 18.4169 160.715 18.4169H157.577V17.9225C157.577 14.8678 159.668 14.5789 160.965 14.4973C162.135 14.4148 162.763 13.9187 162.763 12.8053V11.7324C162.763 10.5778 162.76 10 161.632 10H161.005C158.831 10 152.269 11.0317 152.269 17.7162V18.4178H151.225C150.095 18.4178 149.511 19.0359 149.511 20.1501V20.8517C149.511 22.0072 150.096 22.5849 151.225 22.5849H152.269L152.266 37.7276ZM174.273 17.9225C180.335 17.9225 183.724 22.1714 183.724 27.9471C183.724 28.8568 182.928 29.7216 181.883 29.7216H168.878C169.214 33.5173 172.055 35.4991 175.275 35.4991C177.24 35.4991 178.872 34.7563 179.875 34.1373C180.92 33.6411 181.674 33.7659 182.216 34.7141L182.717 35.5395C183.221 36.4904 183.053 37.3149 182.133 37.8505C180.752 38.7162 178.245 39.9534 174.899 39.9534C167.833 39.9534 163.443 34.9205 163.443 28.9384C163.444 22.4602 167.875 17.9225 174.273 17.9225ZM178.454 26.5449C178.371 23.6157 176.572 21.8834 174.146 21.8834C171.43 21.8834 169.506 23.7395 169.005 26.5449H178.454ZM187.165 37.7276C187.165 38.8831 187.751 39.459 188.878 39.459H190.718C191.846 39.459 192.433 38.8822 192.433 37.7276V30.9605C192.433 27.1235 194.315 23.326 198.202 23.326C199.331 23.326 200.001 22.7078 200.001 21.5945V19.985C200.001 18.8295 199.582 18.2518 198.411 18.2518C195.402 18.2518 193.06 21.0571 192.224 23.5745H192.138C192.138 23.5745 192.265 22.9142 192.265 22.1301V20.1501C192.265 19.0359 191.64 18.4169 190.51 18.4169H188.878C187.751 18.4169 187.165 19.0359 187.165 20.1501V37.7276ZM71.5482 37.7276C71.5482 38.8831 72.1345 39.459 73.2627 39.459H75.1027C76.2309 39.459 76.8173 38.8822 76.8173 37.7276V30.9605C76.8173 27.1235 78.6991 23.326 82.5873 23.326C83.7155 23.326 84.3854 22.7078 84.3854 21.5945V19.985C84.3854 18.8295 83.9673 18.2518 82.7954 18.2518C79.7864 18.2518 77.4445 21.0571 76.6082 23.5745H76.5245C76.5245 23.5745 76.65 22.9142 76.65 22.1301V20.1501C76.65 19.0359 76.0227 18.4169 74.8936 18.4169H73.2636C72.1354 18.4169 71.5491 19.0359 71.5491 20.1501L71.5482 37.7276Z" fill="#5B6064"/>
<path d="M5.82545 37.4351L0.234545 21.8143C0.116364 21.5057 0 21.0033 0 20.6112C0 19.4853 0.904545 18.4339 2.32182 18.4339H28.3464C29.6482 18.4339 30.59 19.445 30.59 20.6112C30.59 20.962 30.47 21.4321 30.3973 21.6636L24.7273 37.4351C24.2127 38.8705 23.2282 39.5299 22.0909 39.5299H21.9291C20.7518 39.5299 19.7655 38.8705 19.3291 37.5176L16.8218 29.9674C16.8218 29.9674 16.5245 28.8935 15.2791 28.8935C14.0282 28.8935 13.7118 29.9674 13.7118 29.9674L11.1845 37.5176C10.7464 38.8705 9.76727 39.5299 8.62182 39.5299H8.46455C7.28182 39.5308 6.29818 38.8696 5.82545 37.4351ZM49.3755 33.8887C48.7582 33.7945 48.3727 33.9112 47.9264 34.1552C46.9227 34.7733 45.2918 35.517 43.3264 35.517C40.1745 35.517 37.3855 33.6205 36.9545 29.9799C36.9545 29.9799 39.7591 31.2395 44.2191 31.0906C46.7718 31.0054 48.8891 30.4473 50.2355 29.5861C51.6045 28.7105 51.8482 27.4088 51.6209 25.9213C50.9036 21.215 47.6436 17.9396 42.3227 17.9396C35.9255 17.9396 31.4945 22.4782 31.4945 28.9563C31.4945 34.9384 35.8845 39.9722 42.95 39.9722C46.2945 39.9722 48.8036 38.7341 50.1827 37.8675C50.6455 37.5347 51.0418 37.0251 51.1455 36.3711C51.3409 35.1465 50.5736 34.0735 49.3755 33.8887Z" fill="#0092D0"/>
</g>
<defs>
<clipPath id="clip0_5_23">
<rect width="200" height="50" fill="white"/>
</clipPath>
</defs>
</svg>
