<svg width="200" height="50" viewBox="0 0 200 50" fill="none" xmlns="http://www.w3.org/2000/svg">
<path d="M39.3687 40.9041C39.3687 42.714 37.8924 44.1815 36.0715 44.1815H0L5.16715 37.6757H36.0715C37.8924 37.6268 39.3687 39.0943 39.3687 40.9041ZM13.8283 26.8653L8.66113 33.3711H23.0799C24.9007 33.3711 26.377 31.9036 26.377 30.0937C26.377 28.2839 24.9007 26.8164 23.0799 26.8164H13.8283V26.8653ZM39.3687 8.27735C39.3687 6.46747 37.8924 5 36.0715 5H5.16715L0 11.5547H36.0715C37.8924 11.5547 39.3687 10.0872 39.3687 8.27735ZM34.9397 19.0389C34.9397 17.2289 33.4634 15.7614 31.6427 15.7614H22.4401L17.2731 22.3161H31.6918C33.5127 22.3161 34.9397 20.8486 34.9397 19.0389Z" fill="url(#paint0_linear_6_25)"/>
<path d="M138.743 15.8257C129.343 15.8257 123.635 22.625 123.635 30.6961C123.635 38.7671 129.343 45.6153 138.743 45.6153C148.241 45.6153 153.9 38.7671 153.9 30.6961C153.9 22.625 148.192 15.8257 138.743 15.8257ZM138.743 38.9628C134.068 38.9628 131.459 35.1474 131.459 30.6961C131.459 26.2937 134.068 22.4783 138.743 22.4783C143.466 22.4783 146.075 26.2937 146.075 30.6961C146.075 35.1474 143.466 38.9628 138.743 38.9628ZM112.316 5.70017H119.846V44.8327H112.316V5.70017ZM104.246 5.01535C106.411 5.01535 108.33 5.50451 109.708 6.18932L108.183 11.7168C107.592 11.2766 106.755 11.1298 105.771 11.1298C103.655 11.1298 102.228 12.4994 102.228 15.2387V16.5594H104.738C106.559 16.5594 108.035 18.027 108.035 19.8367C108.035 21.6467 106.559 23.1141 104.738 23.1141H102.228V44.8327H94.6987V23.1141H89.9745V16.6084H94.6987V15.2876C94.6496 8.63511 98.7341 5.01535 104.246 5.01535ZM85.7424 16.6084V44.8816H78.2131V16.6084H85.7424ZM85.9393 8.9286C85.9393 11.0809 84.1676 12.8419 81.9531 12.8419C79.7879 12.8419 78.0163 11.0809 78.0163 8.9286C78.0163 6.77631 79.7879 5.06427 81.9531 5.06427C84.1676 5.01535 85.9393 6.7274 85.9393 8.9286ZM199.961 16.6084L198.682 20.815L198.386 21.7934L191.3 44.8816H183.23L177.176 25.5599L171.124 44.8816H163.052L154.392 16.6084H162.069L167.482 35.5876L173.731 16.6084H180.523L186.772 35.5876L192.087 16.6084H199.961ZM60.6941 38.327H73.981V44.8327H50.7042V39.2563L63.5483 23.0163H50.7042V16.5105H73.7349V21.8912L60.6941 38.327Z" fill="#0C294E"/>
<defs>
<linearGradient id="paint0_linear_6_25" x1="19.6977" y1="44.1466" x2="19.6977" y2="5.01419" gradientUnits="userSpaceOnUse">
<stop stop-color="#E83C78"/>
<stop offset="1" stop-color="#096FF6"/>
</linearGradient>
</defs>
</svg>
